<?xml version="1.0" encoding="UTF-8" standalone="no"?><svg xmlns="http://www.w3.org/2000/svg" xmlns:xlink="http://www.w3.org/1999/xlink" fill="#000000" height="157.7" preserveAspectRatio="xMidYMid meet" version="1" viewBox="0.0 -0.0 666.7 157.7" width="666.7" zoomAndPan="magnify"><g><g><g id="change1_1"><path d="M 591.223,1182.45 H 4408.78 c 326.52,0 591.22,-264.7 591.22,-591.223 v 0 C 5000,264.703 4735.3,0.0117188 4408.78,0.0117188 H 591.223 C 264.695,0.0117188 0,264.703 0,591.227 v 0 C 0,917.75 264.695,1182.45 591.223,1182.45" fill="#fcfcfc" transform="matrix(.13333 0 0 -.13333 0 157.653)"/></g><g id="change2_1"><path d="m 4764.9,1063.16 c 66.34,-95.551 105.26,-211.59 105.26,-336.738 v 0 c 0,-326.524 -264.7,-591.223 -591.22,-591.223 H 461.383 c -133.731,0 -257.07,44.422 -356.125,119.281 C 212.016,100.711 389.844,0.0117188 591.223,0.0117188 H 4408.78 C 4735.3,0.0117188 5000,264.703 5000,591.227 v 0 c 0,192.793 -92.3,364.011 -235.1,471.933" fill="#000000" transform="matrix(.13333 0 0 -.13333 0 157.653)"/></g></g></g></svg>